# xmcd CD database file
#
# Track frame offsets:
#	150
#	15553
#	37185
#	55025
#	80233
#	101785
#	118899
#	150973
#	169977
#	186975
#	209948
#	226256
#	240595
#	253861
#
# Disc length: 3718 seconds
#
# Revision: 0
# Processed by: cddbd v1.5.1PL2 Copyright (c) Steve Scherf et al.
# Submitted via: CDex 1.51
#
DISCID=c70e840e
DTITLE=Emma Sidney - Love Rhapsody
DYEAR=2002
DGENRE=Jazz
TTITLE0=You'd be so Nice to Come Home To
TTITLE1=The Very Thought of You
TTITLE2=L-O-V-E
TTITLE3=Don't Explain
TTITLE4=Changeable Day
TTITLE5=Blues for Breakfast
TTITLE6=Lament
TTITLE7=A Day in the Life of a Fool
TTITLE8=Solitude
TTITLE9=Nature Boy
TTITLE10=Almost Like Being in Love
TTITLE11=Love Rhapsody
TTITLE12=It's a Sin to Tell a Lie
TTITLE13=And I Love Him
EXTD=YEAR: 2002
EXTT0=
EXTT1=
EXTT2=
EXTT3=
EXTT4=
EXTT5=
EXTT6=
EXTT7=
EXTT8=
EXTT9=
EXTT10=
EXTT11=
EXTT12=
EXTT13=
PLAYORDER=
